<svg xmlns="http://www.w3.org/2000/svg" xmlns:xlink="http://www.w3.org/1999/xlink" id="Layer_1" width="53.01" height="46.004" x="0" y="0" enable-background="new 0 0 53.01 46.004" version="1.1" viewBox="0 0 53.01 46.004" xml:space="preserve"><path fill="#F44A52" fill-rule="evenodd" d="M41.159,12.109c-3.177,0.227-4.16-2.951-2.42-4.842	c-2.27-1.665-4.416-1.057-6.396,0.307c-1.52,1.047-3.578,6.76-0.865,11.798c2.278,4.232,11.053,9.882,21.533,10.039v16.593h-53	c0,0,0.303-9.306,0-12.105c-0.303-2.799,6.021-19.046,12.103-24.21c6.505-5.523,14.221-9.835,21.784-9.684	C41.461,0.155,46,4.911,46,7.267C46,10.142,44.335,11.882,41.159,12.109z" clip-rule="evenodd"/></svg>